<?xml version="1.0" standalone="no"?>
<!DOCTYPE svg PUBLIC "-//W3C//DTD SVG 20010904//EN"
 "http://www.w3.org/TR/2001/REC-SVG-20010904/DTD/svg10.dtd">
<svg version="1.0" xmlns="http://www.w3.org/2000/svg"
 width="300.000000pt" height="300.000000pt" viewBox="0 0 300.000000 300.000000"
 preserveAspectRatio="xMidYMid meet">
<metadata>
Created by potrace 1.10, written by Peter Selinger 2001-2011
</metadata>
<g transform="translate(0.000000,300.000000) scale(0.100000,-0.100000)"
fill="#00e7e7" stroke="none">
<path d="M402 2663 c3 -35 6 -38 33 -38 23 0 31 -5 33 -22 3 -20 -1 -23 -34
-23 l-37 0 6 -697 c4 -384 7 -823 7 -975 l0 -278 30 0 c25 0 30 -4 30 -25 0
-21 -5 -25 -30 -25 -27 0 -30 -3 -30 -34 0 -31 3 -34 35 -38 34 -4 35 -3 35
29 0 29 3 33 25 33 21 0 25 -5 25 -30 l0 -30 970 0 970 0 0 30 c0 25 4 30 25
30 21 0 25 -5 25 -30 0 -28 2 -30 40 -30 39 0 40 1 40 35 0 33 -2 35 -35 35
-31 0 -35 3 -35 25 0 22 4 25 35 25 l35 0 0 975 0 975 -33 0 c-29 0 -33 3 -32
23 1 17 8 22 31 22 26 0 29 3 32 38 l3 37 -40 0 c-39 0 -41 -2 -41 -30 0 -25
-4 -30 -25 -30 -21 0 -25 5 -25 30 l0 30 -970 0 -970 0 0 -30 c0 -25 -4 -30
-25 -30 -21 0 -25 5 -25 30 0 28 -2 30 -41 30 l-40 0 3 -37z m66 0 c3 -20 -1
-23 -27 -23 -31 0 -32 3 -22 48 1 2 11 2 24 0 14 -2 23 -11 25 -25z m1992 2
c0 -22 -4 -25 -36 -25 -35 0 -36 -1 -32 -30 4 -27 2 -30 -22 -30 -24 0 -26 3
-22 30 4 29 3 30 -37 30 l-41 0 0 -40 c0 -38 2 -40 30 -40 25 0 30 -4 30 -23
0 -21 -4 -23 -55 -23 l-55 1 0 63 0 62 -720 0 -720 0 0 -65 0 -65 -55 0 c-52
0 -55 1 -55 25 0 21 5 25 30 25 28 0 30 3 30 35 0 34 -1 35 -40 35 -37 0 -40
-2 -40 -29 0 -25 -3 -28 -25 -23 -20 3 -25 10 -25 33 0 26 -4 29 -30 29 -25 0
-30 4 -30 25 l0 25 960 0 960 0 0 -25z m125 -2 c1 -19 -4 -23 -25 -23 -24 0
-27 3 -22 26 6 33 45 30 47 -3z m-2055 -58 c0 -20 -5 -25 -25 -25 -20 0 -25 5
-25 25 0 20 5 25 25 25 20 0 25 -5 25 -25z m58 -1 c2 -16 -3 -23 -22 -26 -23
-5 -26 -2 -26 24 0 25 4 29 23 26 13 -2 23 -11 25 -24z m1622 -41 l0 -63 60 0
c60 0 60 0 60 -30 0 -27 3 -30 30 -30 l30 0 0 -65 0 -65 65 0 65 0 0 -707 0
-708 -60 3 -60 4 0 -66 0 -66 -35 0 c-32 0 -35 -2 -35 -30 0 -30 0 -30 -60
-30 l-60 0 0 -65 0 -65 -705 0 -705 0 0 65 0 65 -65 0 -65 0 0 30 c0 27 -3 30
-30 30 l-30 0 0 65 0 65 -65 0 -65 0 0 705 0 705 60 0 60 0 0 65 0 65 35 0
c32 0 35 2 35 30 0 30 0 30 60 30 l60 0 0 58 c0 32 2 61 4 63 3 2 322 4 710 5
l706 1 0 -64z m120 42 c0 -20 -5 -25 -25 -25 -18 0 -25 5 -25 18 0 24 8 32 32
32 13 0 18 -7 18 -25z m130 -4 c0 -25 -3 -28 -25 -23 -18 3 -25 11 -25 28 0
19 5 24 25 24 21 0 25 -5 25 -29z m60 4 c0 -20 -5 -25 -25 -25 -20 0 -25 5
-25 25 0 20 5 25 25 25 20 0 25 -5 25 -25z m-1800 -5 c0 -15 -7 -20 -25 -20
-18 0 -25 5 -25 20 0 15 7 20 25 20 18 0 25 -5 25 -20z m-252 -67 c-3 -25 1
-28 30 -31 26 -3 32 -8 32 -27 0 -19 -6 -24 -32 -27 -29 -3 -32 -6 -32 -38 -1
-33 1 -35 37 -38 36 -3 37 -3 37 32 0 32 3 36 25 36 24 0 25 -3 25 -60 l0 -60
-42 1 c-24 1 -54 1 -66 0 l-24 -1 6 -297 c3 -164 5 -488 6 -720 l0 -423 65 0
65 0 0 -55 c0 -52 -1 -55 -25 -55 -21 0 -25 5 -25 30 0 28 -2 30 -40 30 -39 0
-40 -1 -40 -35 0 -32 2 -35 30 -35 25 0 30 -4 30 -25 0 -21 -5 -25 -30 -25
-28 0 -30 -3 -30 -35 0 -31 -3 -35 -25 -35 l-25 0 -2 960 -3 960 28 0 c24 0
27 -3 25 -27z m62 2 c0 -20 -5 -25 -25 -25 -20 0 -25 5 -25 25 0 20 5 25 25
25 20 0 25 -5 25 -25z m60 0 c0 -20 -5 -25 -25 -25 -20 0 -25 5 -25 25 0 20 5
25 25 25 20 0 25 -5 25 -25z m60 0 c0 -20 -5 -25 -25 -25 -20 0 -25 5 -25 25
0 20 5 25 25 25 20 0 25 -5 25 -25z m1745 3 c-1 -17 -8 -23 -25 -23 -17 0 -24
6 -25 23 -1 18 4 22 25 22 21 0 26 -4 25 -22z m65 -3 c0 -20 -5 -25 -25 -25
-20 0 -25 5 -25 25 0 20 5 25 25 25 20 0 25 -5 25 -25z m60 0 c0 -20 -5 -25
-25 -25 -20 0 -25 5 -25 25 0 20 5 25 25 25 20 0 25 -5 25 -25z m62 -936 l-2
-960 -23 3 c-17 2 -22 10 -22 33 0 27 -4 30 -32 33 -27 3 -33 7 -33 28 0 21 5
24 33 24 32 0 33 1 29 35 -4 32 -7 35 -38 35 -31 0 -34 -3 -34 -30 0 -25 -4
-30 -25 -30 -24 0 -25 3 -25 55 l0 54 63 3 62 3 2 718 2 717 -65 0 -64 0 0 60
c0 57 1 60 25 60 22 0 25 -4 25 -36 0 -34 1 -35 33 -32 29 3 32 6 35 41 3 35
2 37 -27 37 -26 0 -31 4 -31 25 0 22 4 25 36 25 35 0 36 1 32 30 -4 27 -2 30
21 30 l26 0 -3 -961z m-1992 876 c0 -20 -5 -25 -25 -25 -20 0 -25 5 -25 25 0
20 5 25 25 25 20 0 25 -5 25 -25z m60 0 c0 -20 -5 -25 -25 -25 -20 0 -25 5
-25 25 0 20 5 25 25 25 20 0 25 -5 25 -25z m1742 0 c-3 -15 -11 -25 -22 -25
-11 0 -19 10 -22 25 -5 22 -2 25 22 25 24 0 27 -3 22 -25z m68 0 c0 -20 -5
-25 -25 -25 -20 0 -25 5 -25 25 0 20 5 25 25 25 20 0 25 -5 25 -25z m-1930
-60 c0 -20 -5 -25 -25 -25 -20 0 -25 5 -25 25 0 20 5 25 25 25 20 0 25 -5 25
-25z m1990 0 c0 -20 -5 -25 -25 -25 -20 0 -25 5 -25 25 0 20 5 25 25 25 20 0
25 -5 25 -25z m-1990 -1620 c0 -18 -5 -25 -20 -25 -15 0 -20 7 -20 25 0 18 5
25 20 25 15 0 20 -7 20 -25z m1990 0 c0 -20 -5 -25 -25 -25 -20 0 -25 5 -25
25 0 20 5 25 25 25 20 0 25 -5 25 -25z m-1920 -60 c0 -21 -5 -25 -29 -25 -25
0 -28 3 -23 25 3 18 11 25 28 25 19 0 24 -5 24 -25z m60 0 c0 -20 -5 -25 -25
-25 -20 0 -25 5 -25 25 0 20 5 25 25 25 20 0 25 -5 25 -25z m1740 0 c0 -20 -5
-25 -25 -25 -20 0 -25 5 -25 25 0 20 5 25 25 25 20 0 25 -5 25 -25z m60 0 c0
-20 -5 -25 -25 -25 -20 0 -25 5 -25 25 0 20 5 25 25 25 20 0 25 -5 25 -25z
m-130 -66 c0 -27 -3 -30 -27 -27 -26 3 -28 0 -31 -34 l-3 -38 40 0 c39 0 41 2
41 30 0 25 4 30 25 30 21 0 25 -5 25 -30 0 -27 3 -30 30 -30 25 0 30 -4 30
-25 l0 -25 -954 0 -954 0 -4 25 c-5 23 -2 25 28 25 31 0 34 3 34 30 0 25 4 30
25 30 21 0 25 -5 25 -30 0 -28 2 -30 38 -30 36 0 37 1 38 35 1 35 -3 39 -43
35 -18 -1 -23 4 -23 24 0 25 3 26 55 26 l55 0 0 -60 0 -60 720 0 720 0 0 65 0
65 55 0 c55 0 55 0 55 -31z m70 1 c0 -25 -4 -30 -25 -30 -21 0 -25 5 -25 30 0
25 4 30 25 30 21 0 25 -5 25 -30z m60 0 c0 -25 -4 -30 -25 -30 -21 0 -25 5
-25 30 0 25 4 30 25 30 21 0 25 -5 25 -30z m60 0 c0 -25 -4 -30 -25 -30 -21 0
-25 5 -25 30 0 25 4 30 25 30 21 0 25 -5 25 -30z m-1990 -5 c0 -20 -5 -25 -25
-25 -20 0 -25 5 -25 25 0 20 5 25 25 25 20 0 25 -5 25 -25z m68 3 c-5 -34 -44
-37 -50 -4 -5 23 -2 26 24 26 25 0 29 -4 26 -22z m62 -3 c0 -20 -5 -25 -25
-25 -20 0 -25 5 -25 25 0 20 5 25 25 25 20 0 25 -5 25 -25z m-130 -60 c0 -20
-5 -25 -25 -25 -20 0 -25 5 -25 25 0 20 5 25 25 25 20 0 25 -5 25 -25z m70 0
c0 -21 -5 -25 -27 -25 -23 0 -28 4 -28 25 0 21 5 25 28 25 22 0 27 -4 27 -25z
m120 0 c0 -20 -5 -25 -25 -25 -20 0 -25 5 -25 25 0 20 5 25 25 25 20 0 25 -5
25 -25z m1610 5 c0 -15 -7 -20 -25 -20 -18 0 -25 5 -25 20 0 15 7 20 25 20 18
0 25 -5 25 -20z m130 -5 c0 -20 -5 -25 -25 -25 -20 0 -25 5 -25 25 0 20 5 25
25 25 20 0 25 -5 25 -25z m60 0 c0 -20 -5 -25 -25 -25 -20 0 -25 5 -25 25 0
20 5 25 25 25 20 0 25 -5 25 -25z m-2050 -60 c0 -20 -5 -25 -25 -25 -20 0 -25
5 -25 25 0 20 5 25 25 25 20 0 25 -5 25 -25z m2115 0 c0 -14 -8 -21 -27 -23
-24 -3 -28 0 -28 23 0 23 4 26 28 23 19 -2 27 -9 27 -23z"/>
<path d="M1050 2513 c-14 -17 -20 -37 -18 -54 4 -24 -1 -29 -45 -48 l-50 -20
-29 24 c-47 40 -73 33 -145 -38 -71 -72 -78 -98 -37 -142 l25 -27 -21 -52
c-20 -47 -24 -51 -56 -52 -60 -1 -74 -24 -74 -126 0 -102 15 -128 74 -128 31
0 35 -4 55 -51 l21 -51 -25 -30 c-14 -16 -25 -38 -25 -48 0 -23 56 -90 75 -90
29 0 26 23 -6 56 l-33 34 34 35 33 34 -26 59 c-15 33 -27 67 -27 75 0 12 -13
17 -52 19 l-53 3 0 80 0 80 49 5 49 5 19 55 c10 30 23 59 28 64 17 17 11 39
-21 72 l-32 33 53 55 c29 31 56 56 60 56 4 0 20 -13 36 -30 30 -31 53 -37 70
-20 5 5 34 18 64 28 l55 19 5 49 5 49 73 3 c63 2 73 5 70 20 -3 14 -17 18 -80
20 -73 3 -77 2 -98 -25z"/>
<path d="M1244 2468 c6 -57 15 -78 33 -78 8 0 26 -6 41 -14 15 -7 38 -17 52
-21 49 -16 1 23 -51 40 -46 15 -49 19 -49 50 0 39 -8 65 -21 65 -5 0 -7 -19
-5 -42z"/>
<path d="M1416 2411 c-43 -45 -15 -72 31 -29 l23 22 55 -54 c30 -30 55 -59 55
-64 0 -6 -14 -24 -31 -42 l-31 -32 20 -38 c11 -22 25 -56 31 -76 12 -37 14
-38 62 -38 l49 0 0 -38 c0 -38 -1 -40 -74 -75 -67 -34 -115 -75 -156 -134 -12
-16 -22 -20 -43 -16 -28 5 -35 17 -17 28 24 15 43 83 43 155 1 86 -17 130 -80
194 -54 55 -104 76 -188 76 -161 0 -276 -114 -276 -275 0 -109 60 -202 162
-249 l47 -22 -24 -40 c-13 -21 -24 -49 -24 -61 0 -17 -15 -29 -67 -55 -210
-105 -294 -336 -197 -548 26 -57 88 -130 111 -130 29 0 21 28 -20 71 -81 85
-110 246 -66 364 35 95 129 182 241 224 18 7 30 20 33 38 19 84 70 150 143
180 42 18 146 19 187 3 28 -11 32 -9 55 22 103 140 257 206 414 177 161 -29
293 -155 314 -300 7 -53 17 -65 40 -51 9 6 10 21 2 63 -39 205 -245 355 -462
336 l-57 -5 1 32 c1 17 -4 41 -10 53 -11 20 -55 37 -81 31 -7 -2 -23 20 -36
49 l-23 51 24 23 c43 40 33 76 -39 147 -72 72 -98 78 -141 33z m-182 -212 c51
-14 121 -80 142 -135 24 -62 15 -161 -19 -213 -21 -32 -32 -39 -70 -44 -25 -4
-70 -19 -101 -33 -51 -26 -58 -27 -98 -15 -56 17 -132 92 -147 146 -16 59 -13
115 10 165 27 60 54 88 114 116 54 26 108 30 169 13z m486 -223 c0 -2 -7 -7
-16 -10 -8 -3 -12 -2 -9 4 6 10 25 14 25 6z m-346 -185 c4 -5 -3 -7 -14 -4
-23 6 -26 13 -6 13 8 0 17 -4 20 -9z"/>
<path d="M1517 1700 c-54 -14 -97 -38 -97 -55 0 -20 20 -29 33 -16 18 18 31
12 15 -6 -38 -44 -73 -145 -81 -237 -2 -27 -4 -28 -54 -30 -61 -2 -63 2 -36
84 14 44 15 53 2 61 -54 34 -82 -188 -39 -304 25 -66 101 -155 165 -193 123
-71 308 -58 412 30 19 16 30 33 26 41 -8 22 -20 19 -64 -17 -48 -38 -58 -32
-26 15 23 34 49 118 62 200 l6 37 52 0 53 0 -4 -35 c-4 -30 -1 -35 16 -35 44
0 37 171 -10 264 -31 61 -107 135 -173 168 -48 25 -74 31 -140 34 -44 2 -97
-1 -118 -6z m113 -19 c0 -18 -18 -21 -30 -6 -10 13 -9 15 9 15 11 0 21 -4 21
-9z m52 0 c13 -5 35 -12 50 -15 16 -4 27 -10 25 -15 -1 -4 22 -27 51 -50 75
-60 118 -131 134 -224 3 -18 -6 -19 -138 -17 -146 1 -174 -3 -174 -25 0 -19
-20 -29 -31 -18 -14 14 0 43 17 36 12 -4 14 20 14 151 0 125 3 156 14 156 24
0 67 -42 98 -97 30 -53 50 -63 56 -29 4 20 -59 120 -68 107 -3 -4 -25 5 -50
21 -43 28 -43 37 2 19z m-157 -27 c-25 -23 -29 -24 -43 -10 -13 13 -13 16 -1
20 8 2 21 7 29 9 36 12 41 5 15 -19z m65 -141 l0 -158 -80 0 c-79 0 -80 0 -80
25 0 43 29 141 58 193 20 38 81 97 99 97 2 0 3 -71 3 -157z m-168 -189 c-20
-15 -35 -4 -26 19 5 13 9 14 24 5 17 -11 17 -13 2 -24z m-155 4 c-3 -8 -6 -5
-6 6 -1 11 2 17 5 13 3 -3 4 -12 1 -19z m703 1 c0 -5 -4 -9 -10 -9 -5 0 -10 7
-10 16 0 8 5 12 10 9 6 -3 10 -10 10 -16z m-143 -5 c-3 -3 -12 -4 -19 -1 -8 3
-5 6 6 6 11 1 17 -2 13 -5z m-437 -51 c0 -69 49 -209 80 -228 5 -3 10 -11 10
-16 0 -16 -85 48 -124 93 -36 41 -76 131 -76 168 0 17 7 20 55 20 l55 0 0 -37z
m200 -53 c0 -83 1 -90 20 -90 19 0 20 7 20 90 l0 90 83 0 84 0 -9 -62 c-18
-122 -88 -231 -155 -244 -91 -17 -181 96 -199 251 l-7 55 82 0 81 0 0 -90z
m-28 -230 c6 0 9 -2 7 -5 -5 -4 -79 13 -87 20 -1 1 0 10 4 19 5 14 10 13 36
-9 16 -14 34 -25 40 -25z m188 29 c0 -9 -42 -29 -61 -29 -5 0 1 11 12 24 20
23 49 25 49 5z"/>
<path d="M894 1589 c-15 -17 -26 -20 -58 -14 -40 6 -40 6 -21 -15 25 -27 53
-25 87 7 24 23 31 25 53 15 31 -14 35 -15 35 -4 0 10 -44 32 -64 32 -7 0 -21
-9 -32 -21z"/>
<path d="M2206 1568 c-19 -62 -16 -73 41 -132 30 -31 58 -55 60 -52 9 9 -24
53 -61 83 -33 25 -35 30 -29 70 5 39 -2 60 -11 31z"/>
<path d="M2323 1369 c-9 -9 -7 -24 8 -62 14 -35 20 -74 20 -127 0 -135 -57
-241 -151 -283 -43 -20 -71 -21 -532 -25 -475 -4 -488 -5 -488 -24 0 -19 10
-19 498 -16 479 3 499 4 542 24 149 69 221 293 152 470 -21 52 -31 61 -49 43z"/>
<path d="M930 882 c0 -13 32 -19 143 -27 52 -4 87 -3 87 3 0 5 -42 12 -92 15
-51 4 -103 10 -115 13 -13 4 -23 2 -23 -4z"/>
</g>
</svg>
